<svg width="860" height="220" viewBox="0 0 860 220" fill="none" xmlns="http://www.w3.org/2000/svg">
  <defs>
    <linearGradient id="navyGrad" x1="0" y1="0" x2="220" y2="220" gradientUnits="userSpaceOnUse">
      <stop stop-color="#00134A"/>
      <stop offset="1" stop-color="#021B4A"/>
    </linearGradient>
  </defs>
  <rect x="0" y="0" width="220" height="220" rx="56" fill="url(#navyGrad)"/>
  <path d="M44 111C44 75.1015 73.1015 46 109 46C132.264 46 153.114 58.1086 164.866 76.5" stroke="#00F5DF" stroke-width="16" stroke-linecap="round"/>
  <path d="M60 130C60 102.386 82.3858 80 110 80C128.111 80 144.042 89.6321 152.819 104" stroke="#00F5DF" stroke-width="16" stroke-linecap="round"/>
  <path d="M148 129H95C86.7157 129 80 122.284 80 114C80 105.716 86.7157 99 95 99H142" stroke="#00F5DF" stroke-width="16" stroke-linecap="round" stroke-linejoin="round"/>
  <path d="M72 148C87 164 122 174 148 159" stroke="#00F5DF" stroke-width="16" stroke-linecap="round"/>
  <text x="47" y="164" fill="white" font-size="28" font-family="Tajawal, sans-serif" font-weight="700" transform="rotate(24 47,164)">365</text>
  <text x="250" y="138" fill="#0A2F6B" font-size="118" font-family="Tajawal, Segoe UI, sans-serif" font-weight="700">edarat</text>
  <text x="608" y="138" fill="#00F5DF" font-size="118" font-family="Tajawal, Segoe UI, sans-serif" font-weight="700">365</text>
</svg>
